:SAMPLES-PER-SECOND 30
:FRAME-RANGE 1-4244
:FULLY-SPECIFIED
:DEGREES
3581
root  -25.5436 38.8337 -71.5787 176.563 -57.1614 -175.858
RightUpLeg  -17.6876 -9.16731 -0.357528
RightLeg  17.8342 -7.66125 2.16361
RightFoot  -0.419831 -0.255854 2.64506
RightToes  -3.31784e-009 0 -3.6325e-017
Spine  11.3633 -0.847659 14.1592
Spine1  1.67049 1.79892 -3.89789
HEad  -0.907439 62.4131 -19.2415
LeftShoulder1  0.959109 1.02679 -32.6483
LeftArm  5.77599 9.21886 -28.9372
LeftForeArm  9.75774 -5.31442 -16.5455
LeftHand  0.279867 0.0851636 -6.18577
RightShoulder  4.75606 6.13772 43.067
RightArm  10.471 -6.62072 14.9871
RightForeArm  12.1919 7.58003 14.4543
RightHand  0.404731 3.17012 5.25235
LeftUpLeg  -8.67964 0.400256 6.09148
LeftLeg  49.0981 -1.45362 -1.37516
LeftFoot  0.794042 1.12835 -10.6383
LeftToes  1.0277e-010 -6.71454e-011 3.04227e-011
3582
root  -26.0243 38.9785 -72.3043 177.067 -58.8046 -176.368
RightUpLeg  -15.9997 -9.44379 -0.909516
RightLeg  17.5842 -8.97233 2.40233
RightFoot  -2.00773 -0.243785 2.81733
RightToes  -3.31784e-009 0 -3.6325e-017
Spine  11.5575 -0.517501 14.5832
Spine1  1.57817 2.20877 -3.86974
HEad  -0.89354 60.9643 -19.2236
LeftShoulder1  0.88334 1.21945 -32.5941
LeftArm  6.47935 12.017 -28.5848
LeftForeArm  8.70323 -6.80319 -16.0339
LeftHand  0.290314 -0.0110005 -6.28819
RightShoulder  4.88239 6.40374 43.0192
RightArm  13.1502 -6.32105 15.0446
RightForeArm  10.7301 9.14559 13.9714
RightHand  0.400537 3.2775 5.1229
LeftUpLeg  -12.5422 0.594126 6.27585
LeftLeg  53.1558 0.234705 0.797811
LeftFoot  0.221986 0.924359 -9.13009
LeftToes  1.0277e-010 -6.71454e-011 3.04227e-011
3583
root  -26.5156 39.1915 -73.0116 178.354 -60.1643 -177.704
RightUpLeg  -14.0813 -9.81204 -1.61807
RightLeg  16.597 -9.60419 2.55305
RightFoot  -3.01546 -0.255342 3.22418
RightToes  -3.31784e-009 0 -3.6325e-017
Spine  11.5029 -0.0546883 14.7216
Spine1  1.47598 2.73593 -4.44105
HEad  -0.995596 59.7755 -19.5187
LeftShoulder1  0.780318 1.47612 -32.4044
LeftArm  7.78587 14.7334 -28.5033
LeftForeArm  6.47445 -8.87881 -15.2137
LeftHand  0.289883 -0.108877 -6.15384
RightShoulder  5.04215 6.71786 43.062
RightArm  12.406 -5.68389 15.1831
RightForeArm  11.7841 9.40416 13.7146
RightHand  0.427562 3.28657 5.47762
LeftUpLeg  -15.7141 1.10156 5.60373
LeftLeg  54.2823 1.22002 2.29824
LeftFoot  -0.276381 0.713061 -7.33935
LeftToes  1.0277e-010 -6.71454e-011 3.04227e-011
3584
root  -27.0223 39.4398 -73.6947 179.984 -61.4436 -179.521
RightUpLeg  -11.5168 -10.4 -2.44861
RightLeg  14.431 -10.1262 2.9006
RightFoot  -3.6176 -0.259917 3.4834
RightToes  -3.31784e-009 0 -3.6325e-017
Spine  11.4682 0.434927 14.7252
Spine1  1.1934 3.30019 -5.44158
HEad  -0.736662 58.7328 -19.8016
LeftShoulder1  0.711781 1.65365 -32.3894
LeftArm  9.64101 17.0126 -28.4301
LeftForeArm  3.76399 -10.9468 -14.2607
LeftHand  0.299043 -0.225493 -6.20101
RightShoulder  5.17833 7.02177 42.9389
RightArm  11.0442 -5.01019 15.4006
RightForeArm  12.8024 9.04551 13.7392
RightHand  0.433137 3.38321 5.48347
LeftUpLeg  -17.9794 1.55341 4.30834
LeftLeg  52.6979 1.33177 2.33458
LeftFoot  -1.55727 0.602399 -6.92471
LeftToes  1.0277e-010 -6.71454e-011 3.04227e-011
3585
root  -27.5522 39.6434 -74.3315 -178.21 -62.7215 178.589
RightUpLeg  -9.05859 -10.9622 -3.33203
RightLeg  12.2812 -10.5713 3.31215
RightFoot  -4.15574 -0.274594 3.92016
RightToes  -3.31784e-009 0 -3.6325e-017
Spine  11.145 0.957407 14.8684
Spine1  1.0232 3.87569 -6.53035
HEad  -0.232816 57.8867 -20.1048
LeftShoulder1  0.646895 1.82197 -32.3787
LeftArm  10.8321 18.8024 -28.6519
LeftForeArm  2.09658 -12.4923 -13.376
LeftHand  0.316402 -0.401542 -6.33962
RightShoulder  5.28785 7.29451 42.7252
RightArm  10.2484 -4.5857 15.6059
RightForeArm  12.809 9.11788 13.6256
RightHand  0.422842 3.29687 5.4074
LeftUpLeg  -19.6662 2.26384 2.63821
LeftLeg  49.0749 0.472324 1.00839
LeftFoot  -3.20962 0.492729 -6.65711
LeftToes  1.0277e-010 -6.71454e-011 3.04227e-011
